<svg width="1126" height="306" viewBox="0 0 1126 306" fill="none" xmlns="http://www.w3.org/2000/svg">
<path d="M533.434 59C544.24 59 553 50.247 553 39.4497C553 28.6524 544.24 19.8994 533.434 19.8994C532.028 19.8994 530.658 20.0475 529.336 20.3288C524.911 11.9754 516.124 6.28402 506.006 6.28402C503.527 6.28402 501.129 6.62564 498.854 7.2642C493.666 2.74031 486.879 0 479.452 0C463.146 0 449.928 13.2076 449.928 29.5C449.928 30.7419 450.005 31.966 450.154 33.1676L450.088 33.1667C450.035 33.166 449.981 33.1657 449.928 33.1657C442.788 33.1657 437 38.9489 437 46.0828C437 53.2168 442.788 59 449.928 59H533.434Z" fill="url(#paint0_linear)"/>
<path fill-rule="evenodd" clip-rule="evenodd" d="M699.009 136.763H464.816C460.529 130.879 458 123.633 458 115.796C458 96.1094 473.959 80.1505 493.645 80.1505C495.829 80.1505 497.966 80.3469 500.041 80.7229C507.614 61.558 526.304 48 548.161 48C558.358 48 567.866 50.9508 575.877 56.0451C582.424 51.0003 590.628 48 599.532 48C618.005 48 633.461 60.9122 637.369 78.2036C668.189 82.8878 692.8 106.472 699.009 136.763Z" fill="url(#paint1_linear)"/>
<path d="M334.319 93C321.44 93 311 82.596 311 69.7619C311 58.0734 319.66 48.4005 330.934 46.7668C332.101 23.504 351.397 5 375.03 5C389.841 5 402.948 12.2668 410.957 23.4177C411.967 23.3304 412.989 23.2857 414.022 23.2857C433.34 23.2857 449 38.8918 449 58.1429C449 77.3939 433.34 93 414.022 93C387.093 93 359.468 93 334.319 93Z" fill="url(#paint2_linear)"/>
<path d="M783.974 93C800.557 93 814 79.6864 814 63.2632C814 46.8399 800.557 33.5263 783.974 33.5263C782.115 33.5263 780.296 33.6936 778.531 34.0138C771.655 23.58 759.762 16.6842 746.243 16.6842C742.247 16.6842 738.393 17.2867 734.769 18.4049C726.44 8.96397 714.193 3 700.54 3C678.441 3 660.027 18.6249 655.946 39.3285C655.666 39.32 655.385 39.3158 655.103 39.3158C640.134 39.3158 628 51.3334 628 66.1579C628 80.9824 640.134 93 655.103 93C696.241 93 741.174 93 783.974 93Z" fill="url(#paint3_linear)"/>
<path opacity="0.5" d="M935.255 149.359L953.28 144.529C970.351 139.955 987.898 150.085 992.472 167.156L998.711 190.441C1003.28 207.512 1020.83 217.642 1037.9 213.068L1055.93 208.238L1058.5 207.548M1119.03 191.33L1074.35 203.301" stroke="#F2B230" stroke-width="2" stroke-linecap="round" stroke-linejoin="round"/>
<path d="M919.327 142.681L922.732 141.769C928.372 140.257 934.169 143.604 935.68 149.245C937.192 154.885 933.845 160.682 928.204 162.193L924.8 163.106L919.327 142.681Z" fill="#F2B230"/>
<rect x="910.507" y="143.343" width="7.69163" height="24.4317" transform="rotate(-15 910.507 143.343)" fill="white" stroke="#F2B230" stroke-width="2"/>
<path opacity="0.3" d="M952.332 94.2373L947.815 102.061M934.265 125.53L943.298 109.884" stroke="#F2B230" stroke-width="2" stroke-linecap="round" stroke-linejoin="round"/>
<path opacity="0.3" d="M968.772 189.634L948.269 177.797" stroke="#F2B230" stroke-width="2" stroke-linecap="round" stroke-linejoin="round"/>
<path opacity="0.5" d="M909.31 118.913L902.811 94.6583L901.187 88.5947M896.312 70.4038L899.277 81.4673" stroke="#F2B230" stroke-width="2" stroke-linecap="round" stroke-linejoin="bevel"/>
<path opacity="0.5" d="M941.007 237.207L937.929 225.718M928.693 191.251L934.85 214.229" stroke="#F2B230" stroke-width="2" stroke-linecap="round" stroke-linejoin="bevel"/>
<path opacity="0.3" d="M1038.2 190.974L1106.26 172.736" stroke="#F2B230" stroke-width="2" stroke-linecap="round"/>
<line opacity="0.3" x1="980.404" y1="176.246" x2="989.722" y2="211.019" stroke="#F2B230" stroke-width="2" stroke-linecap="round"/>
<line opacity="0.5" x1="1061.12" y1="232.264" x2="1110.25" y2="219.099" stroke="#F2B230" stroke-width="2" stroke-linecap="round"/>
<line opacity="0.5" x1="1000" y1="140.342" x2="1007.7" y2="169.047" stroke="#F2B230" stroke-width="2" stroke-linecap="round"/>
<path opacity="0.5" d="M178.22 196.181L164.716 199.8C147.645 204.374 130.098 194.243 125.524 177.172L114.823 137.235C110.249 120.164 92.7022 110.033 75.6313 114.608L62.7063 118.071L33.509 125.894M6.04963 133.252L20.4503 129.393" stroke="#F2B230" stroke-width="2" stroke-linecap="round" stroke-linejoin="round"/>
<path d="M202.428 198.47L199.426 199.274C194.258 200.659 188.947 197.592 187.562 192.424C186.177 187.257 189.244 181.945 194.412 180.56L197.414 179.756L202.428 198.47Z" fill="#F2B230"/>
<rect x="210.222" y="197.435" width="6.7963" height="22.2175" transform="rotate(165 210.222 197.435)" fill="white" stroke="#F2B230" stroke-width="2"/>
<line x1="206.414" y1="180.905" x2="214.911" y2="178.629" stroke="#F2B230" stroke-width="2"/>
<line x1="209.13" y1="191.042" x2="217.627" y2="188.765" stroke="#F2B230" stroke-width="2"/>
<path opacity="0.3" d="M154.673 152.836L161.788 156.989M183.132 169.447L168.903 161.142" stroke="#F2B230" stroke-width="2" stroke-linecap="round" stroke-linejoin="round"/>
<path opacity="0.3" d="M185.257 236.082L195.964 217.335" stroke="#F2B230" stroke-width="2" stroke-linecap="round" stroke-linejoin="round"/>
<line opacity="0.5" x1="199.472" y1="152.68" x2="187.662" y2="108.607" stroke="#F2B230" stroke-width="2" stroke-linecap="round" stroke-linejoin="bevel"/>
<path opacity="0.5" d="M227.921 258.079L226.615 253.206M217.474 219.092L224.16 244.044" stroke="#F2B230" stroke-width="2" stroke-linecap="round" stroke-linejoin="bevel"/>
<path opacity="0.5" d="M77.5813 91.3074L7.38029 110.118" stroke="#F2B230" stroke-width="2" stroke-linecap="round"/>
<path opacity="0.3" d="M23.0699 148.126L72.9757 134.754" stroke="#F2B230" stroke-width="2" stroke-linecap="round"/>
<line opacity="0.5" x1="98.4934" y1="145.035" x2="111.556" y2="193.787" stroke="#F2B230" stroke-width="2" stroke-linecap="round"/>
<line opacity="0.3" x1="141.04" y1="172.515" x2="126.724" y2="119.085" stroke="#F2B230" stroke-width="2" stroke-linecap="round"/>
<defs>
<linearGradient id="paint0_linear" x1="495" y1="0" x2="495" y2="59" gradientUnits="userSpaceOnUse">
<stop stop-color="#F7F8F9"/>
<stop offset="1" stop-color="#F7F8F9" stop-opacity="0"/>
</linearGradient>
<linearGradient id="paint1_linear" x1="578.505" y1="48" x2="578.505" y2="136.763" gradientUnits="userSpaceOnUse">
<stop stop-color="#F7F8F9"/>
<stop offset="1" stop-color="#F7F8F9" stop-opacity="0"/>
</linearGradient>
<linearGradient id="paint2_linear" x1="380" y1="5" x2="380" y2="93" gradientUnits="userSpaceOnUse">
<stop stop-color="#F7F8F9"/>
<stop offset="1" stop-color="#F7F8F9" stop-opacity="0"/>
</linearGradient>
<linearGradient id="paint3_linear" x1="721" y1="3" x2="721" y2="93" gradientUnits="userSpaceOnUse">
<stop stop-color="#F7F8F9"/>
<stop offset="1" stop-color="#F7F8F9" stop-opacity="0"/>
</linearGradient>
</defs>
</svg>
